<svg width="76" height="73" viewBox="0 0 76 73" fill="none" xmlns="http://www.w3.org/2000/svg">
<g clip-path="url(#clip0_3_33)">
<path d="M37.4969 0.868164L1.35272 20.9103H73.6411L37.4969 0.868164Z" stroke="#4B5A6F" stroke-width="2" stroke-linecap="round" stroke-linejoin="round"/>
<path d="M14.7759 17.4385L37.4969 4.83691L60.2179 17.4327L48.7099 14.1174C41.3792 12.0056 33.603 12.0056 26.2724 14.1174L14.7643 17.4327L14.7759 17.4385Z" fill="#9B51E0"/>
<path d="M68.4338 20.9102V25.4231H6.55998V20.9102" stroke="#4B5A6F" stroke-width="2" stroke-linecap="round" stroke-linejoin="round"/>
<path d="M46.1178 57.8408H6.55998V63.5862" stroke="#4B5A6F" stroke-width="2" stroke-linecap="round" stroke-linejoin="round"/>
<path d="M18.016 29.2762C18.016 30.364 17.1365 31.2434 16.0488 31.2434C14.961 31.2434 14.0816 30.364 14.0816 29.2762H10.4944C10.4944 30.364 9.61491 31.2434 8.52717 31.2434C7.43943 31.2434 6.55998 30.364 6.55998 29.2762V25.4229H18.016V29.2762Z" stroke="#4B5A6F" stroke-width="2" stroke-linecap="round" stroke-linejoin="round"/>
<path d="M18.016 53.9877C18.016 52.9 17.1365 52.0205 16.0488 52.0205C14.961 52.0205 14.0816 52.9 14.0816 53.9877H10.4944C10.4944 52.9 9.61491 52.0205 8.52717 52.0205C7.43943 52.0205 6.55998 52.9 6.55998 53.9877V57.8411H18.016V53.9877Z" stroke="#4B5A6F" stroke-width="2" stroke-linecap="round" stroke-linejoin="round"/>
<path d="M43.2249 53.9877C43.2249 52.9 42.3454 52.0205 41.2577 52.0205C40.17 52.0205 39.2905 52.9 39.2905 53.9877H35.7033C35.7033 52.9 34.8238 52.0205 33.7361 52.0205C32.6484 52.0205 31.7689 52.9 31.7689 53.9877V57.8411H43.2249V53.9877Z" stroke="#4B5A6F" stroke-width="2" stroke-linecap="round" stroke-linejoin="round"/>
<path d="M43.2249 29.2762C43.2249 30.364 42.3454 31.2434 41.2577 31.2434C40.17 31.2434 39.2905 30.364 39.2905 29.2762H35.7033C35.7033 30.364 34.8238 31.2434 33.7361 31.2434C32.6484 31.2434 31.7689 30.364 31.7689 29.2762V25.4229H43.2249V29.2762Z" stroke="#4B5A6F" stroke-width="2" stroke-linecap="round" stroke-linejoin="round"/>
<path d="M68.4338 29.2762C68.4338 30.364 67.5544 31.2434 66.4666 31.2434C65.3789 31.2434 64.4994 30.364 64.4994 29.2762H60.9122C60.9122 30.364 60.0328 31.2434 58.945 31.2434C57.8573 31.2434 56.9778 30.364 56.9778 29.2762V25.4229H68.4338V29.2762Z" stroke="#4B5A6F" stroke-width="2" stroke-linecap="round" stroke-linejoin="round"/>
<path d="M8.52718 31.2432V52.0201" stroke="#4B5A6F" stroke-width="2" stroke-linecap="round" stroke-linejoin="round"/>
<path d="M16.0488 31.2432V52.0201" stroke="#4B5A6F" stroke-width="2" stroke-linecap="round" stroke-linejoin="round"/>
<path d="M33.7361 31.2432V52.0201" stroke="#4B5A6F" stroke-width="2" stroke-linecap="round" stroke-linejoin="round"/>
<path d="M41.2577 31.2432V52.0201" stroke="#4B5A6F" stroke-width="2" stroke-linecap="round" stroke-linejoin="round"/>
<path d="M58.945 31.2432V43.9026" stroke="#4B5A6F" stroke-width="2" stroke-linecap="round" stroke-linejoin="round"/>
<path d="M66.4666 31.2432V44.5564" stroke="#4B5A6F" stroke-width="2" stroke-linecap="round" stroke-linejoin="round"/>
<path d="M48.7504 68.499H1.35272V68.3949C1.35272 65.7392 3.50506 63.5811 6.16654 63.5811H46.1178" stroke="#4B5A6F" stroke-width="2" stroke-linecap="round" stroke-linejoin="round"/>
<path d="M74.0276 62.5716C75.5844 55.913 71.4486 49.253 64.79 47.6961C58.1313 46.1392 51.4713 50.275 49.9145 56.9337C48.3576 63.5923 52.4934 70.2523 59.1521 71.8092C65.8107 73.3661 72.4707 69.2303 74.0276 62.5716Z" stroke="#4B5A6F" stroke-width="2" stroke-linecap="round" stroke-linejoin="round"/>
<path d="M56.4848 59.9429L60.9605 63.9883L67.4075 55.9883" stroke="#4B5A6F" stroke-width="2" stroke-linecap="round" stroke-linejoin="round"/>
</g>
<defs>
<clipPath id="clip0_3_33">
<rect width="74.73" height="73" fill="white" transform="translate(0.484848)"/>
</clipPath>
</defs>
</svg>
