<svg width="52" height="72" viewBox="0 0 52 72" fill="none" xmlns="http://www.w3.org/2000/svg">
<g clip-path="url(#clip0_3_67)">
<path d="M7.42506 0.839844V15.8468L11.1419 13.5678L14.9146 15.8468V0.839844" stroke="#4B5A6F" stroke-width="2" stroke-linecap="round" stroke-linejoin="round"/>
<path d="M5.46884 0.839844C3.0599 0.839844 1.10927 2.79411 1.10927 5.20755V67.1114C1.10927 64.698 3.0599 62.7437 5.46884 62.7437H50.596V0.839844H5.46884Z" stroke="#4B5A6F" stroke-width="2" stroke-linecap="round" stroke-linejoin="round"/>
<path d="M1.10927 67.1118C1.10927 69.3461 2.91458 71.1548 5.15026 71.1548H47.0357V62.7441" stroke="#4B5A6F" stroke-width="2" stroke-linecap="round" stroke-linejoin="round"/>
<path d="M16.3508 45H35.354" stroke="#4B5A6F" stroke-width="2" stroke-linecap="round" stroke-linejoin="round"/>
<path d="M16.3508 37.7998H35.354" stroke="#4B5A6F" stroke-width="2" stroke-linecap="round" stroke-linejoin="round"/>
<path d="M16.3508 30.5996H35.354" stroke="#4B5A6F" stroke-width="2" stroke-linecap="round" stroke-linejoin="round"/>
<path d="M16.3508 23.8145H35.354" stroke="#4B5A6F" stroke-width="2" stroke-linecap="round" stroke-linejoin="round"/>
<path d="M16.3508 52.2002H35.354" stroke="#4B5A6F" stroke-width="2" stroke-linecap="round" stroke-linejoin="round"/>
<path d="M47.2369 35.0037V4.2002H30.2513C36.9416 8.37192 41.8098 14.9291 43.8722 22.5502L47.2369 35.0037Z" fill="#FECA34"/>
</g>
<defs>
<clipPath id="clip0_3_67">
<rect width="51.1579" height="72" fill="white" transform="translate(0.270889)"/>
</clipPath>
</defs>
</svg>
