<svg width="64" height="70" viewBox="0 0 64 70" fill="none" xmlns="http://www.w3.org/2000/svg">
<g clip-path="url(#clip0_3_57)">
<path d="M21.0264 35.4909L30.6263 44.0526L44.4643 27.123" stroke="#4B5A6F" stroke-width="2.5" stroke-linecap="round" stroke-linejoin="round"/>
<path d="M61.4509 9.77079C43.1866 11.9212 31.8527 1.42578 31.8527 1.42578C31.8527 1.42578 20.513 11.9212 2.25438 9.77079C2.25438 9.77079 -3.44395 58.1411 31.8527 68.5738C67.1493 58.1411 61.4509 9.77079 61.4509 9.77079Z" stroke="#4B5A6F" stroke-width="2.5" stroke-linecap="round" stroke-linejoin="round"/>
<path d="M31.8527 19.1031C40.5399 19.1031 48.6454 21.8411 55.5187 26.5583C56.0036 22.3716 56.1005 18.6012 56.0606 15.7606C44.8179 15.6408 36.4216 11.4768 31.8527 8.51074C27.2894 11.4711 18.8874 15.6408 7.65041 15.7606C7.61049 18.6012 7.70745 22.3716 8.1923 26.5583C15.06 21.8411 23.1711 19.1031 31.8584 19.1031H31.8527Z" fill="#FECA34"/>
</g>
<defs>
<clipPath id="clip0_3_57">
<rect width="62.7273" height="70" fill="white" transform="translate(0.486145)"/>
</clipPath>
</defs>
</svg>
