<svg width="78" height="73" viewBox="0 0 78 73" fill="none" xmlns="http://www.w3.org/2000/svg">
<g clip-path="url(#clip0_3_7)">
<path d="M41.3005 0.905273H55.5571V12.2719H66.8902V27.7328H55.5571V39.103H40.142V27.7328H28.8053V12.2719H41.3005V0.905273Z" stroke="#4B5A6F" stroke-width="2" stroke-linecap="round" stroke-linejoin="round"/>
<path d="M43.6033 35.6273V24.2607H32.2702V15.7465H44.7618V4.37988H52.0922V15.7465H63.4253V24.2607H52.0922V35.6273H43.6033Z" fill="#F8574C"/>
<path d="M40.7339 58.3105H45.1444C49.3528 58.3105 53.4674 57.0435 56.9503 54.6724L58.2821 53.7674C59.4515 52.971 59.8485 51.4 59.1447 50.1728C59.1447 50.1728 59.0978 50.1258 59.0148 50.0497C56.9864 48.1674 54.1026 47.6099 51.4606 48.4208C46.3896 49.9737 42.2498 48.0551 42.2498 48.0551C31.7143 41.4234 21.861 42.5999 14.426 47.9104" stroke="#4B5A6F" stroke-width="2" stroke-linecap="round" stroke-linejoin="round"/>
<path d="M59.7403 49.9153L66.3019 47.2799C67.4821 46.8057 68.7021 46.4365 69.9509 46.2121C71.095 46.0057 72.3763 45.8971 73.2497 46.1795C74.9641 46.7333 76.231 48.1958 76.4295 49.9913C76.5558 51.1642 75.9747 52.3008 74.9497 52.88L55.1024 64.0621C51.0239 66.2195 46.4401 67.2549 41.8383 66.9906C24.3984 65.9951 14.426 64.9453 14.426 64.9453" stroke="#4B5A6F" stroke-width="2" stroke-linecap="round" stroke-linejoin="round"/>
<path d="M1.25217 72.0954H12.0366C13.206 72.0954 14.1553 71.1434 14.1553 69.9705V42.1005C14.1553 40.9276 13.206 39.9756 12.0366 39.9756H1.25217" stroke="#4B5A6F" stroke-width="2" stroke-linecap="round" stroke-linejoin="round"/>
</g>
<defs>
<clipPath id="clip0_3_7">
<rect width="77" height="73" fill="white" transform="translate(0.349854)"/>
</clipPath>
</defs>
</svg>
